# xmcd
#
# Track frame offsets:
#	150
#	23807
#	54911
#	74179
#	120311
#	138764
#	151909
#	173772
#
# Disc length: 2517 seconds
#
# Revision: 1
# Processed by: cddbd v1.5.2PL0 Copyright (c) Steve Scherf et al.
# Submitted via: EasyCDDAExtractor 5.1.0
#
DISCID=6109d308
DTITLE=Paul Clark - Christmas with Paul Clark
DYEAR=1998
DGENRE=Vocal
TTITLE0=Joy to the World
TTITLE1=O Come, O Come Emmanuel
TTITLE2=Hark the Herald Angels Sing
TTITLE3=O Holy Night/Silent Night
TTITLE4=What Child is This
TTITLE5=Away In a Manger
TTITLE6=The First Noel
TTITLE7=In the Bleak Mid-Winter/O Come Let Us Adore Him
EXTD=
EXTT0=
EXTT1=
EXTT2=
EXTT3=
EXTT4=
EXTT5=
EXTT6=
EXTT7=
PLAYORDER=
